# xmcd CD database file
#
# Track frame offsets:
#	150
#	13426
#	29641
#	43199
#	59851
#	70874
#	82794
#	95745
#	110001
#	122556
#	133011
#	145976
#	158280
#	170057
#	184377
#	196499
#	212105
#	223526
#	236583
#	251944
#
# Disc length: 3587 seconds
#
# Revision: 0
# Processed by: cddbd v1.5.2PL0 Copyright (c) Steve Scherf et al.
# Submitted via: CDex 1.85
#
DISCID=3b0e0114
DTITLE=Frankie Vaughan - Reflections
DYEAR=2006
DGENRE=Jazz
TTITLE0=Hello Dolly
TTITLE1=I get a kick out of you
TTITLE2=Can't smile without you
TTITLE3=Begin the beguine
TTITLE4=It's all in the game
TTITLE5=Hello
TTITLE6=Mame
TTITLE7=If I were a rich man
TTITLE8=Thank heaven for little girls
TTITLE9=If you were the only girl in the world
TTITLE10=Smoke gets in your eyes
TTITLE11=I'm a fool to want you
TTITLE12=Stella by starlight
TTITLE13=When I fall in love
TTITLE14=Singing in the rain
TTITLE15=I just called to say i love you
TTITLE16=A woman in love
TTITLE17=Some enchanted evening
TTITLE18=I can't fake it anymore
TTITLE19=Sometimes when we touch
EXTD=YEAR: 2006
EXTT0=
EXTT1=
EXTT2=
EXTT3=
EXTT4=
EXTT5=
EXTT6=
EXTT7=
EXTT8=
EXTT9=
EXTT10=
EXTT11=
EXTT12=
EXTT13=
EXTT14=
EXTT15=
EXTT16=
EXTT17=
EXTT18=
EXTT19=
PLAYORDER=
